<?xml version="1.0" encoding="utf-8"?>
<!-- Generator: Adobe Illustrator 16.0.0, SVG Export Plug-In . SVG Version: 6.00 Build 0)  -->
<!DOCTYPE svg PUBLIC "-//W3C//DTD SVG 1.1//EN" "http://www.w3.org/Graphics/SVG/1.1/DTD/svg11.dtd">
<svg version="1.1" id="Layer_1" xmlns="http://www.w3.org/2000/svg" xmlns:xlink="http://www.w3.org/1999/xlink" x="0px" y="0px"
	 width="440px" height="900.5px" viewBox="0 0 440 900.5" enable-background="new 0 0 440 900.5" xml:space="preserve">
<g id="bg">
	<rect x="483.753" y="-7.175" fill="#E6332A" stroke="#000000" stroke-miterlimit="10" width="437.73" height="800"/>
</g>
<g id="Layer_1_1_">
	<g id="backgground" display="none">
		<rect display="inline" fill="#33CC00" width="185" height="800"/>
	</g>
	<g id="old_sm_icons" display="none">
		<g display="inline" opacity="0.3">
			<g>
				<g>
					<g>
						<g>
							<g>
								<g>
									<g>
										<g>
											<g>
												<g>
													<g>
														<g>
															<g>
																<g>
																	<g>
																		<g>
																			<g>
																				<g>
																					<g>
																						<g>
																							<g>
																								<g>
																									<g>
																										<defs>
																											<rect id="SVGID_1_" x="200.5" y="145.3" width="31.3" height="193.5"/>
																										</defs>
																										<clipPath id="SVGID_2_">
																											<use xlink:href="#SVGID_1_"  overflow="visible"/>
																										</clipPath>
																										<path clip-path="url(#SVGID_2_)" fill="#231F20" d="M221.4,241c0,2.9-2.4,5.3-5.302,5.3
																											c-2.898,0-5.303-2.399-5.303-5.3c0-0.1,0-0.1,0-0.2H208.1v7.8c0,0.9,0.699,1.601,1.604,1.601h12.8
																											c0.896,0,1.604-0.7,1.604-1.601v-7.8H221.4C221.4,240.9,221.4,240.9,221.4,241"/>
																									</g>
																								</g>
																							</g>
																						</g>
																					</g>
																				</g>
																			</g>
																		</g>
																	</g>
																</g>
															</g>
														</g>
													</g>
												</g>
											</g>
										</g>
									</g>
								</g>
							</g>
						</g>
					</g>
				</g>
				<g>
					<g>
						<g>
							<g>
								<g>
									<g>
										<g>
											<g>
												<g>
													<g>
														<g>
															<g>
																<g>
																	<g>
																		<g>
																			<g>
																				<g>
																					<g>
																						<g>
																							<g>
																								<g>
																									<g>
																										<defs>
																											<rect id="SVGID_3_" x="200.5" y="145.3" width="31.3" height="193.5"/>
																										</defs>
																										<clipPath id="SVGID_4_">
																											<use xlink:href="#SVGID_3_"  overflow="visible"/>
																										</clipPath>
																										<path clip-path="url(#SVGID_4_)" fill="#231F20" d="M216.1,243.6c1.5,0,2.7-1.199,2.7-2.699
																											s-1.2-2.7-2.7-2.7s-2.698,1.2-2.698,2.7C213.3,242.3,214.6,243.6,216.1,243.6"/>
																									</g>
																								</g>
																							</g>
																						</g>
																					</g>
																				</g>
																			</g>
																		</g>
																	</g>
																</g>
															</g>
														</g>
													</g>
												</g>
											</g>
										</g>
									</g>
								</g>
							</g>
						</g>
					</g>
				</g>
				<g>
					<g>
						<g>
							<g>
								<g>
									<g>
										<g>
											<g>
												<g>
													<g>
														<g>
															<g>
																<g>
																	<g>
																		<g>
																			<g>
																				<g>
																					<g>
																						<g>
																							<g>
																								<g>
																									<g>
																										<defs>
																											<rect id="SVGID_5_" x="200.5" y="145.3" width="31.3" height="193.5"/>
																										</defs>
																										<clipPath id="SVGID_6_">
																											<use xlink:href="#SVGID_5_"  overflow="visible"/>
																										</clipPath>
																										<path clip-path="url(#SVGID_6_)" fill="#231F20" d="M200.5,257.8h31.3v-31.4h-31.3V257.8z M226.8,248.3
																											c0,2.5-2.1,4.601-4.6,4.601H210c-2.5,0-4.6-2.101-4.6-4.601v-12.2c0-2.5,2.1-4.6,4.6-4.6h12.2
																											c2.5,0,4.6,2.1,4.6,4.6V248.3z"/>
																									</g>
																								</g>
																							</g>
																						</g>
																					</g>
																				</g>
																			</g>
																		</g>
																	</g>
																</g>
															</g>
														</g>
													</g>
												</g>
											</g>
										</g>
									</g>
								</g>
							</g>
						</g>
					</g>
				</g>
				<g>
					<g>
						<g>
							<g>
								<g>
									<g>
										<g>
											<g>
												<g>
													<g>
														<g>
															<g>
																<g>
																	<g>
																		<g>
																			<g>
																				<g>
																					<g>
																						<g>
																							<g>
																								<g>
																									<g>
																										<defs>
																											<rect id="SVGID_7_" x="200.5" y="145.3" width="31.3" height="193.5"/>
																										</defs>
																										<clipPath id="SVGID_8_">
																											<use xlink:href="#SVGID_7_"  overflow="visible"/>
																										</clipPath>
																										<path clip-path="url(#SVGID_8_)" fill="#231F20" d="M200.5,298.3h31.3v-31.4h-31.3V298.3z M211.6,290.9
																											h-4.1v-12.2h4.1V290.9z M209.5,277c-1.3,0-2.3-1-2.3-2.3c0-1.3,1-2.3,2.3-2.3s2.3,1,2.3,2.3
																											C211.9,275.9,210.8,277,209.5,277 M225.8,290.7h-4.1V283c0,0,0.2-2.3-2-2.3c-1.602,0-2,1-2.2,2.1v8h-3.8
																											v-12.3h3.8v1.7c0.7-1,2-2.3,4.1-2.3c3.4,0,4.2,1.899,4.2,5.5V290.7z"/>
																									</g>
																								</g>
																							</g>
																						</g>
																					</g>
																				</g>
																			</g>
																		</g>
																	</g>
																</g>
															</g>
														</g>
													</g>
												</g>
											</g>
										</g>
									</g>
								</g>
							</g>
						</g>
					</g>
				</g>
				<g>
					<g>
						<g>
							<g>
								<g>
									<g>
										<g>
											<g>
												<g>
													<g>
														<g>
															<g>
																<g>
																	<g>
																		<g>
																			<g>
																				<g>
																					<g>
																						<g>
																							<g>
																								<g>
																									<g>
																										<defs>
																											<rect id="SVGID_9_" x="200.5" y="145.3" width="31.3" height="193.5"/>
																										</defs>
																										<clipPath id="SVGID_10_">
																											<use xlink:href="#SVGID_9_"  overflow="visible"/>
																										</clipPath>
																										<path clip-path="url(#SVGID_10_)" fill="#231F20" d="M200.5,145.4v31.4h15.3V164h-2.6l0.1-5h2.602v-0.7
																											c0-1.899,0.198-3,0.698-3.899c0.4-0.9,1-1.601,2.2-2.2c1.2-0.601,2.2-0.9,4.103-0.9
																											c1.897,0,1.313,0.101,3.104,0.101v5c0,0-4.196-0.101-4.604,0.3c-0.803,0.8-0.396,2.3-0.396,2.3h5.2
																											l-0.604,5H221v12.8h10.9V145.4H200.5L200.5,145.4z"/>
																									</g>
																								</g>
																							</g>
																						</g>
																					</g>
																				</g>
																			</g>
																		</g>
																	</g>
																</g>
															</g>
														</g>
													</g>
												</g>
											</g>
										</g>
									</g>
								</g>
							</g>
						</g>
					</g>
				</g>
				<g>
					<g>
						<g>
							<g>
								<g>
									<g>
										<g>
											<g>
												<g>
													<g>
														<g>
															<g>
																<g>
																	<g>
																		<g>
																			<g>
																				<g>
																					<g>
																						<g>
																							<g>
																								<g>
																									<g>
																										<defs>
																											<rect id="SVGID_11_" x="200.5" y="145.3" width="31.3" height="193.5"/>
																										</defs>
																										<clipPath id="SVGID_12_">
																											<use xlink:href="#SVGID_11_"  overflow="visible"/>
																										</clipPath>
																										<path clip-path="url(#SVGID_12_)" fill="#231F20" d="M200.5,217.3h31.3v-31.4h-31.3V217.3z M225.7,197.8
																											c0,0.2,0,0.4,0,0.601c0,6.3-4.2,12.699-12.9,12.699c-2.7,0-5.2-1.3-7.3-2.699c0.4,0,0.7,0.1,1.1,0.1
																											c2.2,0,4.302-0.4,5.9-1.7c-2.1,0-3.8-0.7-4.4-2.6c1.5,0.1,1.7-0.2,2-0.4c-2.198-0.399-4.1-1.6-4.1-3.899
																											c1.9,0.5,1.8,0,2.6,0.1c-1.3-0.9-2.5-2.3-2.5-3.9c0-0.899,0.2-1.699,0.604-2.399
																											c2.3,2.899,6.5,4.2,10.396,4.399c-0.1-0.3-0.1-0.6-0.1-0.899c0-2.601,1.7-5,4.3-5
																											c1.4,0,2.603,0.8,3.5,1.7c1.103-0.2,2.3-0.9,3.2-1.5c-0.2,1.699-1.3,2.5-2.3,3
																											c1-0.101,1.897,0.199,2.8-0.101C228,196.2,226.6,197.1,225.7,197.8"/>
																									</g>
																								</g>
																							</g>
																						</g>
																					</g>
																				</g>
																			</g>
																		</g>
																	</g>
																</g>
															</g>
														</g>
													</g>
												</g>
											</g>
										</g>
									</g>
								</g>
							</g>
						</g>
					</g>
				</g>
				<g>
					<g>
						<g>
							<g>
								<g>
									<g>
										<g>
											<g>
												<g>
													<g>
														<g>
															<g>
																<g>
																	<g>
																		<g>
																			<g>
																				<g>
																					<g>
																						<g>
																							<g>
																								<g>
																									<g>
																										<defs>
																											<rect id="SVGID_13_" x="200.5" y="145.3" width="31.3" height="193.5"/>
																										</defs>
																										<clipPath id="SVGID_14_">
																											<use xlink:href="#SVGID_13_"  overflow="visible"/>
																										</clipPath>
																										<path clip-path="url(#SVGID_14_)" fill="#231F20" d="M200.5,338.8h31.3v-31.4h-31.3V338.8z M222.2,326.8
																											c-3,3.9-5.5,5.8-7.5,5.8c-1.3,0-2.3-1.188-3.2-3.5c-0.6-2.188-1.2-4.3-1.8-6.5
																											c-0.7-2.3-1.3-3.5-2.102-3.5c-0.198,0-0.698,0.313-1.698,1l-1-1.3c1.1-0.896,2.1-1.896,3.198-2.8
																											c1.397-1.2,2.5-1.9,3.197-2c1.7-0.2,2.7,1,3.104,3.5c0.396,2.7,0.698,4.3,0.896,5
																											c0.5,2.2,1,3.3,1.604,3.3c0.5,0,1.1-0.7,2.1-2.2c0.9-1.396,1.4-2.5,1.5-3.3
																											c0.101-1.2-0.4-1.896-1.5-1.896c-0.5,0-1.1,0.1-1.6,0.396c1.1-3.5,3.1-5.2,6.1-5.1
																											c2.2,0.1,3.3,1.5,3.2,4.396C226.5,320.2,225,323.1,222.2,326.8"/>
																									</g>
																								</g>
																							</g>
																						</g>
																					</g>
																				</g>
																			</g>
																		</g>
																	</g>
																</g>
															</g>
														</g>
													</g>
												</g>
											</g>
										</g>
									</g>
								</g>
							</g>
						</g>
					</g>
				</g>
			</g>
		</g>
		<path display="inline" fill="#FFFFFF" d="M22.9,200H8.7v4.9H4v22.4h18.7v-4.9h4.7v-17.9L22.9,200z M21,225.6H5.7v-19h3v15.8H21
			V225.6z M25.7,220.7h-3H21H10.4v-14.1v-1.7v-3.3h11.2v4.301h4.1V220.7z"/>
		<path display="inline" fill="#FFFFFF" d="M84.4,200v4.3H80v15.8h20.7v-4.3h4.399V200H84.4z M99,218.5H81.7v-9.6h2.8v7H99V218.5z
			 M103.5,214.1h-2.8H99H86.1v-5.3v-4.3h14.6h2.8V214.1z"/>
		<path display="inline" fill="#FFFFFF" d="M63.7,217.7l-0.101-0.8H59v-15.3v-0.8V200H40v0.8v0.8v17c0,3.601,2.1,5.801,5.7,5.801
			h11.6c2.101,0,3.7-0.601,4.8-1.801C64,220.7,63.7,217.9,63.7,217.7 M49.5,217.9c0,0,0.2,2.399-1.1,3.8c-0.601,0.7-1.5,1-2.7,1
			c-3.3,0-4-2.2-4-4v-17h15.7V217h-8L49.5,217.9z"/>
	</g>
	<path display="none" fill="#FFFFFF" d="M12.5,300c-4.7,0-8.5,3.8-8.5,8.5c0,0.1,0,0.2,0,0.3c0,0.9,0.2,1.8,0.5,2.604
		c1.8,6,8,13.8,8,13.8s6.2-7.8,8-13.8c0.3-0.813,0.5-1.7,0.5-2.604c0-0.1,0-0.2,0-0.3C21.1,303.8,17.3,300,12.5,300 M12.5,312.7
		c-2.3,0-4.2-1.9-4.2-4.2s1.9-4.2,4.2-4.2s4.2,1.9,4.2,4.2S14.8,312.7,12.5,312.7"/>
	<path display="none" fill="#FFFFFF" d="M64.5,308.6h-3.4c-0.699,0-1.3-0.6-1.3-1.3v-0.9c0-1.801-3.6-3-6.899-3
		c-3.301,0-6.9,1.199-6.9,3v0.896c0,0.7-0.6,1.3-1.3,1.3h-3.4c-0.7,0-1.3-0.6-1.3-1.3v-1.5c0-3.6,6.7-5.8,12.9-5.8
		c6.199,0,12.899,2.2,12.899,5.8v1.5C65.8,308,65.2,308.6,64.5,308.6 M62.1,314.4l-3.3-4.7c-0.399-0.7-1.2-1.104-2-1.104H49
		c-0.8,0-1.6,0.4-2,1.104l-3.3,4.8c0,0.1-0.101,0.1-0.101,0.2v3.896c0,0.813,0.7,1.4,1.5,1.4h15.5c0.9,0,1.5-0.604,1.5-1.4V314.7
		C62.2,314.6,62.2,314.5,62.1,314.4 M52.9,315.3c-3,0-5.4-1.396-5.4-3.1c0-1.704,2.4-3.104,5.4-3.104s5.399,1.4,5.399,3.104
		C58.299,313.904,55.9,315.3,52.9,315.3 M52.9,310.5c-2,0-3.7,0.8-3.7,1.7c0,0.896,1.7,1.7,3.7,1.7s3.699-0.813,3.699-1.7
		C56.5,311.3,54.9,310.5,52.9,310.5"/>
	<path display="none" fill="#FFFFFF" d="M113.4,313.1l-6.604-5l6.604-4.1V313.1L113.4,313.1z M91,314.5l6.8-5l3.9,2.3l3.6-2.396
		l7.102,5.188c-0.197,0.2-0.5,0.313-0.802,0.313H91.8C91.5,314.8,91.2,314.7,91,314.5 M101.7,308.9L90,301.5c0-0.8,0.7-1.5,1.5-1.5
		H112c0.8,0,1.4,0.7,1.4,1.5L101.7,308.9z M96.6,308.1l-6.6,5V304L96.6,308.1z"/>
</g>
<g>
	<path fill="#A2A2A2" d="M13,245.943c4.42,0,8-3.569,8-7.972c0-4.403-3.583-7.972-8-7.972s-8,3.568-8,7.972
		C5,242.375,8.583,245.943,13,245.943z M13,230.776l1.646,5.069h5.332l-4.313,3.135l1.646,5.068L13,240.916l-4.313,3.133
		l1.647-5.068l-4.313-3.135h5.332L13,230.776z"/>
	<path fill="#A2A2A2" d="M7.305,245.943v7.7L13,249.087l5.696,4.557v-7.7c-1.563,1.248-3.542,2-5.696,2
		C10.847,247.943,8.868,247.191,7.305,245.943z"/>
</g>
<g>
	<path fill="#C61A22" d="M58,245.943c4.42,0,8-3.568,8-7.973c0-4.402-3.582-7.971-8-7.971s-8,3.568-8,7.971
		C50,242.375,53.582,245.943,58,245.943z M58,230.776l1.646,5.069h5.332l-4.313,3.133l1.646,5.07L58,240.916l-4.313,3.133
		l1.646-5.07l-4.313-3.133h5.33L58,230.776z"/>
	<path fill="#C61A22" d="M52.305,245.943v7.7L58,249.087l5.696,4.557v-7.7c-1.563,1.248-3.543,1.999-5.696,1.999
		S53.868,247.19,52.305,245.943z"/>
</g>
<g>
	<circle opacity="0.6" fill="#C61A22" enable-background="new    " cx="47.439" cy="537.5" r="37.5"/>
	<polygon fill="#FFFFFF" points="35.862,521.151 64.179,537.5 35.862,553.85 	"/>
</g>
<g>
	<circle fill="#C61A22" cx="142.219" cy="537.5" r="37.5"/>
	<polygon fill="#FFFFFF" points="130.643,521.151 158.96,537.5 130.643,553.85 	"/>
</g>
<g>
	<circle opacity="0.6" fill="#C61A22" enable-background="new    " cx="71.751" cy="657.972" r="62"/>
	<polygon fill="#FFFFFF" points="52.611,630.941 99.428,657.972 52.611,685.003 	"/>
</g>
<g>
	<circle fill="#C61A22" cx="283.618" cy="657.972" r="62"/>
	<polygon fill="#FFFFFF" points="264.477,630.942 311.295,657.972 264.477,685.003 	"/>
</g>
<polyline fill="none" stroke="#999999" stroke-miterlimit="10" points="194.541,310 194.482,310 219.997,327.008 245.512,310 
	245.459,310 "/>
<g>
	<polygon fill="#8D8D8C" points="432.553,21.291 425.104,14.75 425.764,14 432.553,19.96 439.34,14 440,14.75 	"/>
</g>
<g>
	<polygon fill="#BC0613" points="432.552,7.291 425.104,0.75 425.764,0 432.552,5.96 439.34,0 440,0.75 	"/>
</g>
<polygon fill="#3C3C3B" points="25.866,5 22.933,10.081 20,5 "/>
<polygon fill="#FFFFFF" points="10.866,5 7.934,10.081 5,5 "/>
<polygon fill="#8D8D8C" points="7.997,80 5,82.998 13.414,91.411 5,99.824 7.997,102.822 19.408,91.411 "/>
<polygon fill="#8D8D8C" points="19.408,52.998 16.41,50 5,61.411 16.41,72.822 19.408,69.824 10.995,61.411 "/>
<polygon fill="#FFFFFF" points="420.869,165.387 405.482,150 400,155.482 415.388,170.869 400,186.256 405.482,191.738 
	420.869,176.352 426.351,170.869 "/>
<polygon fill="#FFFFFF" points="405.482,106.351 420.869,121.738 426.352,116.256 410.963,100.869 426.352,85.482 420.869,80 
	405.482,95.387 400,100.869 "/>
<polygon fill="#FFFFFF" points="422.342,46.86 433.721,35.482 428.24,30 416.861,41.38 416.859,41.379 405.482,30 400,35.481 
	411.379,46.86 400,58.238 405.482,63.721 416.859,52.343 416.859,52.342 416.861,52.343 428.24,63.721 433.721,58.239 "/>
<polygon fill="#FFFFFF" points="413,319.585 403.415,310 400,313.415 409.586,323 400,332.585 403.415,336 413,326.416 416.415,323 
	"/>
<polygon fill="#FFFFFF" points="403.415,276.415 413,286 416.415,282.585 406.829,273 416.415,263.415 413,260 403.415,269.585 
	400,273 "/>
<polygon fill="#FFFFFF" points="413.251,230 420,223.251 416.75,220 410.001,226.75 409.999,226.749 403.252,220 400,223.251 
	406.749,230 400,236.749 403.252,240 409.999,233.251 409.999,233.251 410.001,233.251 416.75,240 420,236.749 "/>
<g>
	<rect x="60" y="10" fill="#A41A22" width="37.781" height="37.781"/>
	<polygon fill="#9F9F9F" points="90.1,36.717 82.271,28.89 90.1,21.063 86.718,17.682 78.891,25.508 71.064,17.682 67.683,21.063 
		75.508,28.89 67.683,36.717 71.064,40.099 78.891,32.272 86.718,40.099 	"/>
</g>
<g>
	<rect x="60" y="60" fill="#9F9F9F" width="37.78" height="37.781"/>
	<polygon fill="#A41A22" points="90.099,86.717 82.271,78.89 90.099,71.063 86.717,67.682 78.89,75.508 71.063,67.682 
		67.682,71.063 75.508,78.89 67.682,86.717 71.063,90.099 78.89,82.272 86.717,90.099 	"/>
</g>
<g>
	<path fill="#A2A2A2" d="M16.255,270C10.039,270,5,275.04,5,281.255c0,6.216,5.039,11.255,11.255,11.255
		c6.216,0,11.255-5.039,11.255-11.255C27.51,275.04,22.471,270,16.255,270z M16.255,288.511c-4,0-7.255-3.255-7.255-7.255
		S12.255,274,16.255,274s7.255,3.255,7.255,7.255S20.256,288.511,16.255,288.511z"/>
	<path fill="#A2A2A2" d="M17.232,275.84l-0.977,5.416l5.338-1.33C21.075,277.838,19.37,276.223,17.232,275.84z"/>
</g>
<g>
	<path fill="#C61A22" d="M56.256,270C50.039,270,45,275.04,45,281.255c0,6.216,5.039,11.255,11.256,11.255
		c6.216,0,11.255-5.039,11.255-11.255C67.511,275.04,62.472,270,56.256,270z M56.256,288.511c-4.001,0-7.256-3.255-7.256-7.255
		S52.255,274,56.256,274c4,0,7.255,3.255,7.255,7.255S60.256,288.511,56.256,288.511z"/>
	<path fill="#C61A22" d="M57.232,275.84l-0.977,5.416l5.338-1.33C61.075,277.838,59.37,276.223,57.232,275.84z"/>
</g>
<polygon fill="#FFFFFF" points="215.823,12.582 213.242,10 202.912,20.331 192.581,10 190,12.582 200.33,22.912 190,33.242 
	192.581,35.823 202.912,25.493 213.242,35.823 215.823,33.242 205.492,22.912 "/>
<g>
	<rect x="130" y="10" fill="#FFFFFF" width="32.869" height="3.65"/>
	<rect x="130" y="19.204" fill="#FFFFFF" width="32.869" height="3.65"/>
	<rect x="130" y="28.408" fill="#FFFFFF" width="32.869" height="3.65"/>
</g>
<g>
	<rect x="60" y="120" fill="#E3E3E3" width="37.781" height="37.781"/>
	<polygon fill="#8A8A89" points="90.1,146.717 82.272,138.89 90.1,131.063 86.718,127.682 78.891,135.508 71.064,127.682 
		67.683,131.063 75.508,138.89 67.683,146.717 71.064,150.099 78.891,142.271 86.718,150.099 	"/>
</g>
<g>
	<rect x="60" y="170" fill="#8A8A89" width="37.78" height="37.781"/>
	<polygon fill="#E3E3E3" points="90.099,196.717 82.272,188.89 90.099,181.063 86.718,177.682 78.89,185.508 71.063,177.682 
		67.683,181.063 75.509,188.89 67.683,196.717 71.063,200.099 78.89,192.271 86.718,200.099 	"/>
</g>
<polygon fill="#3C3C3B" points="222.934,400 220,405.081 217.067,400 "/>
<polygon fill="#FFFFFF" points="428.243,447.701 422.001,453.943 423.457,455.4 429.7,449.157 431.157,447.701 429.7,446.244 
	423.457,440 422,441.457 "/>
<g>
	<path d="M418.43,820v6.834H425v1.744h-6.57v6.893h-1.858v-6.893H410v-1.744h6.57V820H418.43z"/>
</g>
<polyline fill="#9D9D9D" points="300,5 300.099,5 319.961,15.814 338.861,5 338.539,5 "/>
</svg>
